<?xml version="1.0" encoding="utf-8"?>
<!-- Generator: Adobe Illustrator 23.0.3, SVG Export Plug-In . SVG Version: 6.00 Build 0)  -->
<svg version="1.1" xmlns="http://www.w3.org/2000/svg" xmlns:xlink="http://www.w3.org/1999/xlink" x="0px" y="0px"
	 viewBox="0 0 100 125" style="enable-background:new 0 0 100 125;" xml:space="preserve">
<g id="Calque_2">
</g>
<g id="Calque_1">
	<g>
		<path d="M10.1,27.9L34.2,52c1.5,1.5,3.9,1.5,5.4,0s1.5-3.9,0-5.4L15.5,22.5h13.1c2.1,0,3.8-1.7,3.8-3.8s-1.7-3.8-3.8-3.8H6.3
			c-2.1,0-3.8,1.7-3.8,3.8v22.2c0,1.8,1.2,3.5,3.1,3.9c2.4,0.5,4.6-1.4,4.6-3.7L10.1,27.9z"/>
		<path d="M28.6,102.3H15.5l24.1-24.1c1.5-1.5,1.5-3.9,0-5.4s-3.9-1.5-5.4,0L10.1,96.9V83.8c0-2.4-2.1-4.2-4.6-3.7
			c-1.8,0.3-3.1,2-3.1,3.9v22.2c0,2.1,1.7,3.8,3.8,3.8h22.2c1.8,0,3.5-1.2,3.9-3.1C32.8,104.4,31,102.3,28.6,102.3z"/>
		<path d="M71.5,22.5h13.1L60.5,46.6c-1.5,1.5-1.5,3.9,0,5.4s3.9,1.5,5.4,0L90,27.9V41c0,2.1,1.7,3.8,3.8,3.8s3.8-1.7,3.8-3.8V18.7
			c0-2.1-1.7-3.8-3.8-3.8H71.5c-1.8,0-3.5,1.2-3.9,3.1C67.2,20.4,69,22.5,71.5,22.5z"/>
		<path d="M97.5,106.1V83.8c0-2.1-1.7-3.8-3.8-3.8S90,81.7,90,83.8v13.1L65.9,72.8c-1.5-1.5-3.9-1.5-5.4,0s-1.5,3.9,0,5.4l24.1,24.1
			H71.5c-2.1,0-3.8,1.7-3.8,3.8c0,2.1,1.7,3.8,3.8,3.8h22.3C95.8,109.9,97.5,108.2,97.5,106.1z"/>
	</g>
</g>
</svg>
