<svg width="1485" height="204" viewBox="0 0 1485 204" fill="none" xmlns="http://www.w3.org/2000/svg">
<path d="M1132.6 2.34485H1263.91V15.8276H1132.6V2.34485Z" fill="black"/>
<path d="M1132.6 94.3793H1263.91V107.862H1132.6V94.3793Z" fill="black"/>
<path d="M1132.6 190.517H1263.91V204H1132.6V190.517Z" fill="black"/>
<path d="M736.915 3.51723H751.57V201.069H736.915V3.51723Z" fill="black"/>
<path d="M663.639 1.75861H825.432V15.2414H663.639V1.75861Z" fill="black"/>
<path d="M0.638672 122.581H15.6061V201.069H0.638672V122.581Z" fill="black"/>
<path d="M0.638672 135.941H87.1168C123.856 135.941 153.639 106.034 153.639 69.1429C153.639 32.2513 123.856 2.34485 87.1169 2.34485H2.736L2.52626 15.7045H87.1169C116.508 15.7045 140.334 39.6296 140.334 69.1429C140.334 98.6561 116.508 122.581 87.1168 122.581H0.848404L0.638672 135.941Z" fill="black"/>
<path d="M321.022 121.08L307.257 126.856L361.606 201.055L374.204 201.117L374.159 191.861L321.022 121.08Z" fill="black"/>
<path d="M220.466 122.581H235.491V201.069H220.466V122.581Z" fill="black"/>
<path d="M220.466 135.941H307.276C344.156 135.941 374.053 106.034 374.053 69.1429C374.053 32.2513 344.156 2.34485 307.276 2.34485H222.572L222.361 15.7045H307.276C336.78 15.7045 360.697 39.6296 360.697 69.1429C360.697 98.6561 336.78 122.581 307.276 122.581H220.677L220.466 135.941Z" fill="black"/>
<path d="M878.19 1.75862H894.018V204H878.19V1.75862Z" fill="black"/>
<path d="M1027.09 0H1042.91V202.241H1027.09V0Z" fill="black"/>
<path d="M878.19 108.448V92.6207H1042.91V108.448H878.19Z" fill="black"/>
<path d="M1308.56 204L1458.6 2.34485H1475.43L1325.39 204H1308.56Z" fill="black"/>
<path d="M1467.45 204L1317.41 2.34485H1334.24L1484.28 204H1467.45Z" fill="black"/>
<path fill-rule="evenodd" clip-rule="evenodd" d="M616.105 86.7473L608.652 80.6687C608.012 80.147 607.071 80.2427 606.549 80.8824C606.027 81.5221 606.123 82.4636 606.763 82.9853L617.189 91.4882C617.483 91.7276 617.84 91.837 618.191 91.8235C618.545 91.8398 618.907 91.7307 619.204 91.4887L629.63 82.9853C630.269 82.4636 630.365 81.5221 629.843 80.8824C629.322 80.2427 628.38 80.1471 627.74 80.6688L619.673 87.2482V85.5862C619.673 84.4117 619.648 83.239 619.599 82.069C618.953 66.7225 614.084 51.8229 605.495 39.0141C596.25 25.2287 583.111 14.4843 567.738 8.13964C556.731 3.59693 544.933 1.45573 533.13 1.79306C533.131 2.05919 533.132 2.32564 533.134 2.59223C533.138 3.4992 533.142 4.4078 533.156 5.31102C544.493 4.97667 555.825 7.02813 566.396 11.3909C581.128 17.4709 593.717 27.7663 602.573 40.9731C610.199 52.3448 614.763 65.4358 615.884 78.9927L616.105 86.7473ZM596.811 114.603C596.811 153.417 570.525 186.091 534.783 195.793H608.535V201.069H428.57V195.793H490.598C454.856 186.091 428.57 153.417 428.57 114.603C428.57 68.1449 466.232 30.4827 512.691 30.4827C559.149 30.4827 596.811 68.1449 596.811 114.603ZM511.518 189.345C552.797 189.345 586.259 155.882 586.259 114.603C586.259 73.3249 552.797 39.8621 511.518 39.8621C470.24 39.8621 436.777 73.3249 436.777 114.603C436.777 155.882 470.24 189.345 511.518 189.345Z" fill="black"/>
</svg>
